<mxfile host="localhost" agent="Mozilla/5.0 (X11; Linux x86_64) AppleWebKit/537.36 (KHTML, like Gecko) Chrome/133.0.0.0 Safari/537.36" version="26.0.9">
  <diagram name="Page-1" id="AB6n-l1izs4VcIjsWahc">
    <mxGraphModel dx="1434" dy="760" grid="1" gridSize="10" guides="1" tooltips="1" connect="1" arrows="1" fold="1" page="1" pageScale="1" pageWidth="850" pageHeight="1100" math="0" shadow="0">
      <root>
        <mxCell id="0" />
        <mxCell id="1" parent="0" />
        <mxCell id="J4tvlrKzwntIFfhKe4KU-10" value="File I/O" style="edgeStyle=none;rounded=0;orthogonalLoop=1;jettySize=auto;html=1;exitX=1;exitY=0.5;exitDx=0;exitDy=0;" parent="1" source="J4tvlrKzwntIFfhKe4KU-1" target="J4tvlrKzwntIFfhKe4KU-3" edge="1">
          <mxGeometry x="-0.1429" y="10" relative="1" as="geometry">
            <mxPoint as="offset" />
          </mxGeometry>
        </mxCell>
        <mxCell id="J4tvlrKzwntIFfhKe4KU-11" style="edgeStyle=none;rounded=0;orthogonalLoop=1;jettySize=auto;html=1;exitX=0;exitY=0.5;exitDx=0;exitDy=0;entryX=1;entryY=0.5;entryDx=0;entryDy=0;" parent="1" source="J4tvlrKzwntIFfhKe4KU-1" target="J4tvlrKzwntIFfhKe4KU-4" edge="1">
          <mxGeometry relative="1" as="geometry" />
        </mxCell>
        <mxCell id="J4tvlrKzwntIFfhKe4KU-12" value="Pull Upstream Images" style="edgeLabel;html=1;align=center;verticalAlign=middle;resizable=0;points=[];" parent="J4tvlrKzwntIFfhKe4KU-11" vertex="1" connectable="0">
          <mxGeometry x="0.075" y="-2" relative="1" as="geometry">
            <mxPoint x="5" y="-18" as="offset" />
          </mxGeometry>
        </mxCell>
        <mxCell id="J4tvlrKzwntIFfhKe4KU-1" value="Docker Daemon" style="rounded=0;whiteSpace=wrap;html=1;" parent="1" vertex="1">
          <mxGeometry x="290" y="30" width="120" height="60" as="geometry" />
        </mxCell>
        <mxCell id="J4tvlrKzwntIFfhKe4KU-8" style="edgeStyle=none;rounded=0;orthogonalLoop=1;jettySize=auto;html=1;exitX=0.5;exitY=0;exitDx=0;exitDy=0;entryX=0.5;entryY=1;entryDx=0;entryDy=0;" parent="1" source="J4tvlrKzwntIFfhKe4KU-2" target="J4tvlrKzwntIFfhKe4KU-1" edge="1">
          <mxGeometry relative="1" as="geometry" />
        </mxCell>
        <mxCell id="J4tvlrKzwntIFfhKe4KU-9" value="docker inspect/save docker.io/my-repo/my-image:foo" style="edgeLabel;html=1;align=center;verticalAlign=middle;resizable=0;points=[];" parent="J4tvlrKzwntIFfhKe4KU-8" vertex="1" connectable="0">
          <mxGeometry x="-0.32" y="-2" relative="1" as="geometry">
            <mxPoint x="-142" y="-13" as="offset" />
          </mxGeometry>
        </mxCell>
        <mxCell id="J4tvlrKzwntIFfhKe4KU-2" value="OCI Reg Docker" style="rounded=0;whiteSpace=wrap;html=1;" parent="1" vertex="1">
          <mxGeometry x="290" y="140" width="120" height="60" as="geometry" />
        </mxCell>
        <mxCell id="J4tvlrKzwntIFfhKe4KU-3" value="Storage" style="rounded=0;whiteSpace=wrap;html=1;" parent="1" vertex="1">
          <mxGeometry x="550" y="30" width="120" height="60" as="geometry" />
        </mxCell>
        <mxCell id="J4tvlrKzwntIFfhKe4KU-4" value="DockerHub, Quay, etc" style="rounded=0;whiteSpace=wrap;html=1;" parent="1" vertex="1">
          <mxGeometry x="30" y="30" width="120" height="60" as="geometry" />
        </mxCell>
        <mxCell id="J4tvlrKzwntIFfhKe4KU-7" value="localhost:8080/v2/manifests/docker.io/my-repo/my-image/foo&lt;div&gt;localhost:8080/v2/blobs/docker.io/my-repo/my-image/...&lt;/div&gt;" style="edgeStyle=none;rounded=0;orthogonalLoop=1;jettySize=auto;html=1;exitX=0.5;exitY=0;exitDx=0;exitDy=0;entryX=0.5;entryY=1;entryDx=0;entryDy=0;" parent="1" source="J4tvlrKzwntIFfhKe4KU-5" target="J4tvlrKzwntIFfhKe4KU-2" edge="1">
          <mxGeometry y="160" relative="1" as="geometry">
            <mxPoint as="offset" />
          </mxGeometry>
        </mxCell>
        <mxCell id="J4tvlrKzwntIFfhKe4KU-5" value="OCI Container Runtime" style="rounded=0;whiteSpace=wrap;html=1;" parent="1" vertex="1">
          <mxGeometry x="290" y="280" width="120" height="60" as="geometry" />
        </mxCell>
      </root>
    </mxGraphModel>
  </diagram>
</mxfile>
